<?xml version="1.0" encoding="UTF-8" standalone="no"?>
<!-- Created with Inkscape (http://www.inkscape.org/) -->

<svg
   xmlns:dc="http://purl.org/dc/elements/1.1/"
   xmlns:cc="http://creativecommons.org/ns#"
   xmlns:rdf="http://www.w3.org/1999/02/22-rdf-syntax-ns#"
   xmlns:svg="http://www.w3.org/2000/svg"
   xmlns="http://www.w3.org/2000/svg"
   xmlns:sodipodi="http://sodipodi.sourceforge.net/DTD/sodipodi-0.dtd"
   xmlns:inkscape="http://www.inkscape.org/namespaces/inkscape"
   width="705.70081"
   height="409.51965"
   viewBox="0 0 199.16464 115.57666"
   version="1.1"
   id="svg8"
   inkscape:version="0.92.2 (5c3e80d, 2017-08-06)"
   sodipodi:docname="LOGO.svg">
  <sodipodi:namedview
     id="base"
     pagecolor="#ffffff"
     bordercolor="#666666"
     borderopacity="1.0"
     inkscape:pageopacity="0.0"
     inkscape:pageshadow="2"
     inkscape:zoom="0.35"
     inkscape:cx="442.85714"
     inkscape:cy="488.57142"
     inkscape:document-units="px"
     inkscape:current-layer="layer1"
     showgrid="false"
     inkscape:window-width="1600"
     inkscape:window-height="837"
     inkscape:window-x="-8"
     inkscape:window-y="-8"
     inkscape:window-maximized="1"
     inkscape:snap-grids="false" />
  <defs
     id="defs2" />
  <metadata
     id="metadata5">
    <rdf:RDF>
      <cc:Work
         rdf:about="">
        <dc:format>image/svg+xml</dc:format>
        <dc:type
           rdf:resource="http://purl.org/dc/dcmitype/StillImage" />
        <dc:title></dc:title>
      </cc:Work>
    </rdf:RDF>
  </metadata>
  <g
     transform="matrix(1.066667,0,0,1.066667,0,-201.22535)"
     id="layer1"
     inkscape:groupmode="layer"
     inkscape:label="Capa 1">
    <g
       id="text3701"
       style="font-style:italic;font-variant:normal;font-weight:normal;font-stretch:normal;font-size:50.79999924px;line-height:24.8500061;font-family:sans-serif;-inkscape-font-specification:'sans-serif Italic';letter-spacing:0px;word-spacing:0px;fill:#000000;fill-opacity:1;stroke:none;stroke-width:0.26458332"
       aria-label="F.J.B.V"
       transform="matrix(1,0,0,1.6460241,-14.858293,-10.799256)">
      <path
         inkscape:connector-curvature="0"
         id="path3711"
         style="font-style:italic;font-variant:normal;font-weight:normal;font-stretch:normal;font-size:50.79999924px;line-height:24.8500061;font-family:sans-serif;-inkscape-font-specification:'sans-serif Italic';stroke-width:0.26458332"
         d="M 50.176319,133.02391 H 31.523195 l -2.505274,10.71563 h 16.048633 l -0.967383,4.16718 H 28.075343 L 23.93296,165.7661 h -4.960937 l 8.532812,-36.93418 h 23.614063 z" />
      <path
         inkscape:connector-curvature="0"
         id="path3713"
         style="font-style:italic;font-variant:normal;font-weight:normal;font-stretch:normal;font-size:50.79999924px;line-height:24.8500061;font-family:sans-serif;-inkscape-font-specification:'sans-serif Italic';stroke-width:0.26458332"
         d="m 55.434914,165.7661 h -5.97793 l 1.63711,-7.06934 h 5.977929 z" />
      <path
         inkscape:connector-curvature="0"
         id="path3715"
         style="font-style:italic;font-variant:normal;font-weight:normal;font-stretch:normal;font-size:50.79999924px;line-height:24.8500061;font-family:sans-serif;-inkscape-font-specification:'sans-serif Italic';stroke-width:0.26458332"
         d="m 82.447218,156.16668 q -1.141016,4.88653 -4.663281,7.51582 -3.522266,2.6045 -8.532812,2.6045 -1.190625,0 -3.125391,-0.22325 -1.934766,-0.19843 -3.199805,-0.49609 l 1.041797,-4.41523 h 0.272852 q 0.967383,0.34726 2.356445,0.71933 1.389062,0.37207 2.951758,0.37207 2.257226,0 3.745508,-0.57051 1.488281,-0.5705 2.33164,-1.5875 0.892969,-1.0666 1.413867,-2.55488 0.520899,-1.48828 0.892969,-3.22461 l 4.960937,-21.7289 h -8.036718 l 0.868164,-3.74551 h 12.997656 z" />
      <path
         inkscape:connector-curvature="0"
         id="path3717"
         style="font-style:italic;font-variant:normal;font-weight:normal;font-stretch:normal;font-size:50.79999924px;line-height:24.8500061;font-family:sans-serif;-inkscape-font-specification:'sans-serif Italic';stroke-width:0.26458332"
         d="m 97.007567,165.7661 h -5.97793 l 1.637109,-7.06934 h 5.97793 z" />
      <path
         id="path3719"
         style="font-style:italic;font-variant:normal;font-weight:normal;font-stretch:normal;font-size:50.79999924px;line-height:24.8500061;font-family:sans-serif;-inkscape-font-specification:'sans-serif Italic';stroke-width:0.26458332"
         d="m 133.24722,162.78954 q -2.40606,1.6123 -5.03536,2.30683 -2.62929,0.66973 -6.47402,0.66973 h -13.56816 l 8.50801,-36.93418 h 10.6164 q 4.04317,0 6.00274,0.27285 1.98437,0.27285 3.62148,1.26504 1.36426,0.84336 2.03398,2.15801 0.69454,1.28984 0.69454,2.87734 0,3.19981 -1.81075,5.65547 -1.81074,2.45566 -5.01054,3.79512 v 0.19843 q 2.97656,0.66973 4.53925,2.50528 1.5875,1.83554 1.5875,4.71289 0,3.15019 -1.5875,5.97793 -1.56269,2.80293 -4.11757,4.53926 z m 1.0666,-26.02012 q 0,-1.0418 -0.34727,-1.71152 -0.34726,-0.69454 -0.99219,-1.14102 -1.04179,-0.69453 -2.60449,-0.86816 -1.56269,-0.19844 -4.04316,-0.19844 h -5.60586 l -2.53008,10.96367 h 6.44922 q 2.1332,0 3.7207,-0.29766 1.5875,-0.32246 2.77813,-0.99218 1.53789,-0.89297 2.35644,-2.53008 0.81856,-1.66192 0.81856,-3.22461 z m -0.54571,15.85019 q 0,-1.38906 -0.47128,-2.23242 -0.47129,-0.86816 -1.68672,-1.6123 -0.99219,-0.62012 -2.55489,-0.81856 -1.53789,-0.19843 -4.29121,-0.19843 h -7.46621 l -3.24941,13.98984 h 6.77168 q 3.29902,0 5.35781,-0.34727 2.08359,-0.37207 3.59668,-1.28984 1.95957,-1.16582 2.97656,-3.175 1.01699,-2.03398 1.01699,-4.31602 z"
         inkscape:connector-curvature="0" />
      <path
         id="path3721"
         style="font-style:italic;font-variant:normal;font-weight:normal;font-stretch:normal;font-size:50.79999924px;line-height:24.8500061;font-family:sans-serif;-inkscape-font-specification:'sans-serif Italic';stroke-width:0.26458332"
         d="m 150.28804,165.7661 h -5.97793 l 1.63711,-7.06934 h 5.97793 z"
         inkscape:connector-curvature="0" />
      <path
         id="path3723"
         style="font-style:italic;font-variant:normal;font-weight:normal;font-stretch:normal;font-size:50.79999924px;line-height:24.8500061;font-family:sans-serif;-inkscape-font-specification:'sans-serif Italic';stroke-width:0.26458332"
         d="m 198.68198,128.83192 -21.97696,36.93418 h -6.54843 l -4.91133,-36.93418 h 5.10976 l 4.04317,32.44453 19.05,-32.44453 z"
         inkscape:connector-curvature="0" />
    </g>
    <path
       inkscape:connector-curvature="0"
       id="path3728"
       d="m 4.11373,262.05574 c 178.57642,0 175.36569,25.63384 175.36569,25.63384 L 4.11373,262.05574 h 178.57642 -7.41377 L 185.47035,290.17822 4.11373,262.05574 3.1749944,290.17822 H 184.6145 l -1.92435,-28.12248"
       style="fill:#800000;stroke:#000000;stroke-width:0.36118644px;stroke-linecap:butt;stroke-linejoin:miter;stroke-opacity:1"
       inkscape:transform-center-x="16.979896"
       inkscape:transform-center-y="2.4107984" />
  </g>
</svg>
